<svg xmlns="http://www.w3.org/2000/svg" viewBox="0 0 100 100">
  <!-- Gradient definitions -->
  <defs>
    <linearGradient id="magicGradient" x1="0%" y1="0%" x2="100%" y2="100%">
      <stop offset="0%" style="stop-color:#6366f1;stop-opacity:1" />
      <stop offset="50%" style="stop-color:#8b5cf6;stop-opacity:1" />
      <stop offset="100%" style="stop-color:#d946ef;stop-opacity:1" />
    </linearGradient>
    <radialGradient id="glowGradient">
      <stop offset="0%" style="stop-color:#ffffff;stop-opacity:0.8" />
      <stop offset="100%" style="stop-color:#8b5cf6;stop-opacity:0" />
    </radialGradient>
  </defs>
  
  <!-- Background circle with glow -->
  <circle cx="50" cy="50" r="45" fill="url(#magicGradient)" opacity="0.95"/>
  <circle cx="50" cy="50" r="40" fill="url(#glowGradient)" opacity="0.3"/>
  
  <!-- Neural network nodes -->
  <circle cx="30" cy="35" r="4" fill="white" opacity="0.9"/>
  <circle cx="50" cy="30" r="4" fill="white" opacity="0.9"/>
  <circle cx="70" cy="35" r="4" fill="white" opacity="0.9"/>
  <circle cx="25" cy="55" r="4" fill="white" opacity="0.9"/>
  <circle cx="50" cy="50" r="5" fill="white"/>
  <circle cx="75" cy="55" r="4" fill="white" opacity="0.9"/>
  <circle cx="30" cy="75" r="4" fill="white" opacity="0.9"/>
  <circle cx="50" cy="70" r="4" fill="white" opacity="0.9"/>
  <circle cx="70" cy="75" r="4" fill="white" opacity="0.9"/>
  
  <!-- Connections between nodes -->
  <line x1="30" y1="35" x2="50" y2="30" stroke="white" stroke-width="1.5" opacity="0.4"/>
  <line x1="50" y1="30" x2="70" y2="35" stroke="white" stroke-width="1.5" opacity="0.4"/>
  <line x1="30" y1="35" x2="25" y2="55" stroke="white" stroke-width="1.5" opacity="0.4"/>
  <line x1="30" y1="35" x2="50" y2="50" stroke="white" stroke-width="1.5" opacity="0.4"/>
  <line x1="50" y1="30" x2="50" y2="50" stroke="white" stroke-width="1.5" opacity="0.4"/>
  <line x1="70" y1="35" x2="50" y2="50" stroke="white" stroke-width="1.5" opacity="0.4"/>
  <line x1="70" y1="35" x2="75" y2="55" stroke="white" stroke-width="1.5" opacity="0.4"/>
  <line x1="25" y1="55" x2="50" y2="50" stroke="white" stroke-width="1.5" opacity="0.4"/>
  <line x1="50" y1="50" x2="75" y2="55" stroke="white" stroke-width="1.5" opacity="0.4"/>
  <line x1="25" y1="55" x2="30" y2="75" stroke="white" stroke-width="1.5" opacity="0.4"/>
  <line x1="50" y1="50" x2="50" y2="70" stroke="white" stroke-width="1.5" opacity="0.4"/>
  <line x1="75" y1="55" x2="70" y2="75" stroke="white" stroke-width="1.5" opacity="0.4"/>
  <line x1="30" y1="75" x2="50" y2="70" stroke="white" stroke-width="1.5" opacity="0.4"/>
  <line x1="50" y1="70" x2="70" y2="75" stroke="white" stroke-width="1.5" opacity="0.4"/>
  
  <!-- Magic sparkles -->
  <path d="M20 20 L22 25 L20 30 L18 25 Z" fill="white" opacity="0.8"/>
  <path d="M80 20 L82 24 L80 28 L78 24 Z" fill="white" opacity="0.7"/>
  <path d="M15 70 L17 73 L15 76 L13 73 Z" fill="white" opacity="0.6"/>
  <path d="M85 70 L87 73 L85 76 L83 73 Z" fill="white" opacity="0.7"/>
</svg>

